<svg width="134" height="33" viewBox="0 0 134 33" fill="none" xmlns="http://www.w3.org/2000/svg">
<path d="M40.6367 26.5273V10.707L47.2944 5.56543C49.3159 5.56543 50.9419 6.20264 52.1724 7.47705C52.6558 7.97803 53.0425 8.53613 53.3325 9.15137L57.9731 5.56543C59.9771 5.56543 61.603 6.20264 62.8511 7.47705C64.0376 8.68994 64.6309 10.25 64.6309 12.1572V25.3145L62.126 26.5273H61.9941V12.1572C61.9941 10.9795 61.6777 10.0259 61.0449 9.29639C60.2627 8.39111 59.2388 7.93848 57.9731 7.93848C56.6812 7.93848 55.6572 8.39111 54.9014 9.29639C54.2686 10.0522 53.9521 11.0059 53.9521 12.1572V25.3145V25.3408L51.4473 26.5273H51.3154V12.1572C51.3154 10.9795 50.999 10.0259 50.3662 9.29639C49.584 8.39111 48.5601 7.93848 47.2944 7.93848C46.0024 7.93848 44.9785 8.39111 44.2227 9.29639C43.5898 10.0522 43.2734 11.0059 43.2734 12.1572V25.3408L40.7686 26.5273H40.6367ZM74.0571 24.4443C74.98 24.4443 75.6655 24.1763 76.1138 23.6401C76.6323 23.0161 76.8916 22.2383 76.8916 21.3066C76.8916 20.2344 76.606 19.4434 76.0347 18.9336C75.4897 18.4502 74.8306 18.2085 74.0571 18.2085C73.1343 18.2085 72.4487 18.4766 72.0005 19.0127C71.4819 19.6367 71.2227 20.4014 71.2227 21.3066C71.2227 22.4053 71.5083 23.2095 72.0796 23.7192C72.6333 24.2026 73.2925 24.4443 74.0571 24.4443ZM74.0571 26.5273C72.4224 26.4131 71.1436 25.9912 70.2207 25.2617C69.1309 24.4004 68.5859 23.0952 68.5859 21.3462V20.3574L74.0571 16.1255C75.1646 16.2046 76.1094 16.4243 76.8916 16.7847V16.1519C76.8916 15.0884 76.606 14.2974 76.0347 13.7788C75.4897 13.2954 74.8306 13.0537 74.0571 13.0537C73.1958 13.0537 72.5103 13.3218 72.0005 13.8579L71.2754 13.1196L74.0571 10.9707C75.7183 11.085 76.9971 11.5068 77.8936 12.2363C78.9834 13.124 79.5283 14.4292 79.5283 16.1519V25.3408L77.0234 26.5273H76.8916V24.3257L74.0571 26.5273ZM84.1426 26.5273V12.1572L86.6475 10.9707H86.7793V25.3408L84.2744 26.5273H84.1426ZM86.7793 5.56543V8.57129L84.2744 9.75781H84.1426V6.75195L86.6475 5.56543H86.7793ZM96.4692 26.5273C94.8081 26.4131 93.5293 25.9912 92.6328 25.2617C91.543 24.374 90.998 23.0688 90.998 21.3462L93.5029 20.1597H93.6348V21.3462C93.6348 22.4097 93.9204 23.2007 94.4917 23.7192C95.0366 24.2026 95.6958 24.4443 96.4692 24.4443C97.313 24.4443 97.9941 24.1763 98.5127 23.6401C99.04 23.104 99.3037 22.3438 99.3037 21.3594C99.3037 20.3662 99.0093 19.6851 98.4204 19.3159C97.9106 18.9995 97.2559 18.8413 96.4561 18.8413C94.3994 18.8413 92.9668 18.3667 92.1582 17.4175C91.7539 16.9341 91.5518 16.0552 91.5518 14.7808L96.4692 10.9707C97.7524 10.9971 98.8291 11.3838 99.6992 12.1309C100.402 12.7373 100.837 13.5283 101.004 14.5039L98.4995 15.6904H98.3677V15.3081C98.3677 14.6753 98.2358 14.1963 97.9722 13.8711C97.5327 13.3262 96.9307 13.0537 96.166 13.0537C95.4102 13.0537 94.8433 13.291 94.4653 13.7656C94.1929 14.1084 94.0566 14.5303 94.0566 15.0312C94.0566 15.5938 94.2939 16.042 94.7686 16.376C95.0322 16.5605 95.5947 16.6528 96.4561 16.6528C98.3457 16.6528 99.7036 17.0176 100.53 17.7471C101.47 18.5732 101.94 20.0894 101.94 22.2954L96.4692 26.5273ZM110.971 26.5273C109.31 26.4131 108.031 25.9912 107.135 25.2617C106.045 24.374 105.5 23.0688 105.5 21.3462V12.1572L108.005 10.9707H108.137V21.3462C108.137 22.4448 108.422 23.2358 108.994 23.7192C109.565 24.2026 110.22 24.4443 110.958 24.4443C111.714 24.4443 112.404 24.1763 113.028 23.6401C113.546 23.1919 113.806 22.4272 113.806 21.3462V12.1572L116.311 10.9707H116.442V27.7007L110.971 31.9326C109.134 31.8096 107.864 31.3965 107.161 30.6934L108.994 29.1245C109.521 29.6079 110.171 29.8496 110.945 29.8496C111.736 29.8496 112.43 29.5815 113.028 29.0454C113.546 28.5796 113.806 27.8149 113.806 26.7515V24.3257L110.971 26.5273ZM125.869 24.4443C126.792 24.4443 127.477 24.1763 127.925 23.6401C128.444 23.0161 128.703 22.2383 128.703 21.3066C128.703 20.2344 128.417 19.4434 127.846 18.9336C127.301 18.4502 126.642 18.2085 125.869 18.2085C124.946 18.2085 124.26 18.4766 123.812 19.0127C123.293 19.6367 123.034 20.4014 123.034 21.3066C123.034 22.4053 123.32 23.2095 123.891 23.7192C124.445 24.2026 125.104 24.4443 125.869 24.4443ZM125.869 26.5273C124.234 26.4131 122.955 25.9912 122.032 25.2617C120.942 24.4004 120.397 23.0952 120.397 21.3462V20.3574L125.869 16.1255C126.976 16.2046 127.921 16.4243 128.703 16.7847V16.1519C128.703 15.0884 128.417 14.2974 127.846 13.7788C127.301 13.2954 126.642 13.0537 125.869 13.0537C125.007 13.0537 124.322 13.3218 123.812 13.8579L123.087 13.1196L125.869 10.9707C127.53 11.085 128.809 11.5068 129.705 12.2363C130.795 13.124 131.34 14.4292 131.34 16.1519V25.3408L128.835 26.5273H128.703V24.3257L125.869 26.5273Z" fill="white"/>
<circle cx="9.5" cy="16.5" r="9.5" fill="#1FD392"/>
<circle cx="28.5" cy="16.5" r="5.5" fill="#1FD392"/>
</svg>
